<svg width="28" height="26" viewBox="0 0 28 26" fill="none" xmlns="http://www.w3.org/2000/svg">
<path d="M14.789 17.3333H12.5138C11.8881 17.3333 11.3762 16.8458 11.3762 16.25H3.42436V20.5833C3.42436 21.775 4.4482 22.75 5.69956 22.75H21.6145C22.8659 22.75 23.8897 21.775 23.8897 20.5833V16.25H15.9266C15.9266 16.8458 15.4146 17.3333 14.789 17.3333ZM22.7521 7.58333H18.2017C18.2017 5.18917 16.1654 3.25 13.6514 3.25C11.1373 3.25 9.10097 5.18917 9.10097 7.58333H4.55058C3.29923 7.58333 2.27539 8.55833 2.27539 9.75V13C2.27539 14.2025 3.28785 15.1667 4.55058 15.1667H11.3762V14.0833C11.3762 13.4875 11.8881 13 12.5138 13H14.789C15.4146 13 15.9266 13.4875 15.9266 14.0833V15.1667H22.7521C24.0035 15.1667 25.0273 14.1917 25.0273 13V9.75C25.0273 8.55833 24.0035 7.58333 22.7521 7.58333ZM11.3762 7.58333C11.3762 6.39167 12.4 5.41667 13.6514 5.41667C14.9027 5.41667 15.9266 6.39167 15.9266 7.58333H11.3648H11.3762Z" fill="#494949"/>
</svg>
