<svg width="45" height="45" viewBox="0 0 45 45" fill="none" xmlns="http://www.w3.org/2000/svg">
<path fill-rule="evenodd" clip-rule="evenodd" d="M43 22.5C43 33.8218 33.8218 43 22.5 43C11.1782 43 2 33.8218 2 22.5C2 11.1782 11.1782 2 22.5 2C33.8218 2 43 11.1782 43 22.5ZM45 22.5C45 34.9264 34.9264 45 22.5 45C10.0736 45 0 34.9264 0 22.5C0 10.0736 10.0736 0 22.5 0C34.9264 0 45 10.0736 45 22.5ZM23.0607 36.0607L32.6066 26.5147C33.1924 25.9289 33.1924 24.9792 32.6066 24.3934C32.0208 23.8076 31.0711 23.8076 30.4853 24.3934L23.5 31.3787V8H20.5V31.3787L13.5147 24.3934C12.9289 23.8076 11.9792 23.8076 11.3934 24.3934C10.8076 24.9792 10.8076 25.9289 11.3934 26.5147L20.9393 36.0607C21.5251 36.6464 22.4749 36.6464 23.0607 36.0607Z" fill="#494949"/>
</svg>
