<svg width="40" height="40" viewBox="0 0 40 40" fill="none" xmlns="http://www.w3.org/2000/svg">
<path d="M15.2929 27.2929C14.9024 27.6834 14.9024 28.3166 15.2929 28.7071C15.6834 29.0976 16.3166 29.0976 16.7071 28.7071L15.2929 27.2929ZM11.2929 23.2929C10.9024 23.6834 10.9024 24.3166 11.2929 24.7071C11.6834 25.0976 12.3166 25.0976 12.7071 24.7071L11.2929 23.2929ZM29 15L29.7071 15.7071L29 15ZM24.2929 10.2929L11.2929 23.2929L12.7071 24.7071L25.7071 11.7071L24.2929 10.2929ZM16.7071 28.7071L29.7071 15.7071L28.2929 14.2929L15.2929 27.2929L16.7071 28.7071ZM29.7071 15.7071C31.2022 14.212 31.2022 11.788 29.7071 10.2929L28.2929 11.7071C29.0069 12.4212 29.0069 13.5788 28.2929 14.2929L29.7071 15.7071ZM25.7071 11.7071C26.4212 10.9931 27.5788 10.9931 28.2929 11.7071L29.7071 10.2929C28.212 8.7978 25.788 8.7978 24.2929 10.2929L25.7071 11.7071Z" fill="#494949"/>
<path d="M23 13L27 17" stroke="#494949" stroke-width="2"/>
<path d="M16 28L11.8974 29.3675C11.1156 29.6281 10.3719 28.8844 10.6325 28.1026L12 24" stroke="#494949" stroke-width="2" stroke-linejoin="round"/>
</svg>
