<svg width="24" height="24" viewBox="0 0 24 24" fill="none" xmlns="http://www.w3.org/2000/svg">
<circle cx="12" cy="12" r="11.5" fill="white" stroke="#AD967F"/>
<g clip-path="url(#clip0_3077_2188)">
<path d="M17.9947 5.84132C17.7614 5.59608 17.4815 5.39998 17.1714 5.26459C16.8612 5.12919 16.5271 5.05723 16.1887 5.05294C15.8503 5.04865 15.5145 5.11212 15.201 5.2396C14.8875 5.36709 14.6027 5.55603 14.3633 5.79527L6.36988 13.7887C6.09031 14.0682 5.89627 14.4217 5.81055 14.8076L5.06279 18.1755C5.04731 18.2455 5.04973 18.3183 5.06985 18.3871C5.08996 18.4559 5.1271 18.5186 5.17785 18.5693C5.2286 18.6199 5.29131 18.657 5.36017 18.677C5.42903 18.697 5.50183 18.6993 5.57182 18.6837L8.91925 17.9393C9.3178 17.8506 9.68278 17.65 9.97139 17.3612L17.9503 9.38229C18.418 8.91441 18.6844 8.28232 18.6927 7.62082C18.7009 6.95933 18.4505 6.32077 17.9947 5.84132ZM14.9661 6.39894C15.2839 6.09362 15.7088 5.92506 16.1495 5.92944C16.5901 5.93382 17.0116 6.11079 17.3232 6.42236C17.6349 6.73394 17.812 7.15528 17.8166 7.59597C17.8211 8.03666 17.6527 8.46156 17.3475 8.77948L16.7754 9.3516L14.394 6.97105L14.9661 6.39894ZM13.7912 7.57386L16.1726 9.95526L9.36858 16.7593C9.1945 16.9332 8.97445 17.0538 8.73423 17.1071L6.03991 17.7057L6.64357 14.9926C6.69379 14.7648 6.80831 14.5562 6.97354 14.3915L13.7912 7.57386Z" fill="#AD967F"/>
</g>
<defs>
<clipPath id="clip0_3077_2188">
<rect width="17.0526" height="17.0526" fill="white" transform="translate(3.1582 1.89453)"/>
</clipPath>
</defs>
</svg>
