<svg width="15" height="15" viewBox="0 0 15 15" fill="none" xmlns="http://www.w3.org/2000/svg">
<g clip-path="url(#clip0_3077_2194)">
<path d="M12.9959 3.86614C12.8015 3.66177 12.5683 3.49836 12.3098 3.38553C12.0513 3.2727 11.7729 3.21273 11.4909 3.20915C11.2089 3.20558 10.929 3.25847 10.6678 3.36471C10.4065 3.47095 10.1692 3.62839 9.96974 3.82777L3.30856 10.489C3.07558 10.7219 2.91389 11.0164 2.84245 11.338L2.21932 14.1446C2.20642 14.203 2.20844 14.2636 2.2252 14.321C2.24196 14.3783 2.27291 14.4305 2.3152 14.4728C2.35749 14.515 2.40975 14.5458 2.46713 14.5625C2.52452 14.5792 2.58518 14.5811 2.64351 14.5681L5.43303 13.9478C5.76516 13.8739 6.06931 13.7067 6.30982 13.4661L12.9589 6.81695C13.3487 6.42704 13.5706 5.9003 13.5775 5.34906C13.5844 4.79781 13.3757 4.26568 12.9959 3.86614ZM10.4721 4.33082C10.7369 4.07639 11.091 3.93592 11.4582 3.93957C11.8254 3.94322 12.1766 4.0907 12.4364 4.35034C12.6961 4.60999 12.8437 4.96111 12.8475 5.32835C12.8513 5.69558 12.7109 6.04967 12.4566 6.31461L11.9798 6.79137L9.99532 4.80758L10.4721 4.33082ZM9.49298 5.30992L11.4775 7.29442L5.80748 12.9644C5.66241 13.1093 5.47903 13.2099 5.27885 13.2543L3.03358 13.7531L3.53664 11.4922C3.57849 11.3024 3.67392 11.1285 3.81161 10.9913L9.49298 5.30992Z" fill="#AD967F"/>
</g>
<defs>
<clipPath id="clip0_3077_2194">
<rect width="14.2105" height="14.2105" fill="white" transform="translate(0.631836 0.578125)"/>
</clipPath>
</defs>
</svg>
