<svg width="22" height="24" viewBox="0 0 22 24" fill="none" xmlns="http://www.w3.org/2000/svg">
<path d="M9.79775 1.20857C10.1227 0.901386 10.5529 0.730225 11 0.730225C11.4471 0.730225 11.8773 0.901386 12.2023 1.20857L20.6793 9.22183C21.2043 9.71708 21.5 10.4083 21.5 11.1293V20.8768C21.5 21.573 21.2234 22.2407 20.7312 22.733C20.2389 23.2253 19.5712 23.5018 18.875 23.5018H15.375C15.0301 23.5018 14.6886 23.4339 14.3701 23.3018C14.0515 23.1698 13.762 22.9763 13.5182 22.7324C13.2744 22.4884 13.0811 22.1988 12.9493 21.8802C12.8175 21.5615 12.7498 21.2199 12.75 20.8751V16.5001C12.75 16.268 12.6578 16.0455 12.4937 15.8814C12.3296 15.7173 12.1071 15.6251 11.875 15.6251H10.125C9.89294 15.6251 9.67038 15.7173 9.50628 15.8814C9.34219 16.0455 9.25 16.268 9.25 16.5001V20.8751C9.25 21.5713 8.97344 22.239 8.48116 22.7312C7.98887 23.2235 7.32119 23.5001 6.625 23.5001H3.125C2.42881 23.5001 1.76113 23.2235 1.26884 22.7312C0.776562 22.239 0.5 21.5713 0.5 20.8751V11.1276C0.5 10.4066 0.7975 9.71533 1.3225 9.22008L9.79775 1.20507V1.20857ZM11 2.47907L2.523 10.4941C2.43694 10.5757 2.36837 10.6739 2.32144 10.7828C2.27451 10.8917 2.2502 11.009 2.25 11.1276V20.8751C2.25 21.1071 2.34219 21.3297 2.50628 21.4938C2.67038 21.6579 2.89294 21.7501 3.125 21.7501H6.625C6.85706 21.7501 7.07962 21.6579 7.24372 21.4938C7.40781 21.3297 7.5 21.1071 7.5 20.8751V16.5001C7.5 15.8039 7.77656 15.1362 8.26884 14.6439C8.76113 14.1516 9.42881 13.8751 10.125 13.8751H11.875C12.5712 13.8751 13.2389 14.1516 13.7312 14.6439C14.2234 15.1362 14.5 15.8039 14.5 16.5001V20.8751C14.5 21.1071 14.5922 21.3297 14.7563 21.4938C14.9204 21.6579 15.1429 21.7501 15.375 21.7501H18.875C19.1071 21.7501 19.3296 21.6579 19.4937 21.4938C19.6578 21.3297 19.75 21.1071 19.75 20.8751V11.1276C19.75 11.0087 19.7258 10.8911 19.6789 10.7818C19.632 10.6726 19.5633 10.5741 19.477 10.4923L11 2.47907Z" fill="#494949"/>
</svg>
