<svg width="44" height="44" viewBox="0 0 44 44" fill="none" xmlns="http://www.w3.org/2000/svg">
<path d="M20.1108 3.47044C20.6213 2.98772 21.2973 2.71875 22 2.71875C22.7027 2.71875 23.3787 2.98772 23.8893 3.47044L37.2103 16.0627C38.0353 16.8409 38.5 17.9272 38.5 19.0602V34.3777C38.5 35.4717 38.0654 36.5209 37.2918 37.2945C36.5182 38.0681 35.469 38.5027 34.375 38.5027H28.875C28.3331 38.5027 27.7964 38.3959 27.2958 38.1884C26.7951 37.981 26.3403 37.6769 25.9572 37.2935C25.5741 36.9102 25.2703 36.4551 25.0632 35.9544C24.8561 35.4536 24.7496 34.9169 24.75 34.3749V27.4999C24.75 27.1353 24.6051 26.7855 24.3473 26.5277C24.0894 26.2698 23.7397 26.1249 23.375 26.1249H20.625C20.2603 26.1249 19.9106 26.2698 19.6527 26.5277C19.3949 26.7855 19.25 27.1353 19.25 27.4999V34.3749C19.25 35.469 18.8154 36.5182 18.0418 37.2918C17.2682 38.0653 16.219 38.4999 15.125 38.4999H9.625C8.53098 38.4999 7.48177 38.0653 6.70818 37.2918C5.9346 36.5182 5.5 35.469 5.5 34.3749V19.0574C5.5 17.9244 5.9675 16.8382 6.7925 16.0599L20.1108 3.46494V3.47044ZM22 5.46694L8.679 18.0619C8.54377 18.1901 8.43601 18.3445 8.36226 18.5156C8.28851 18.6868 8.25032 18.8711 8.25 19.0574V34.3749C8.25 34.7396 8.39487 35.0894 8.65273 35.3472C8.91059 35.6051 9.26033 35.7499 9.625 35.7499H15.125C15.4897 35.7499 15.8394 35.6051 16.0973 35.3472C16.3551 35.0894 16.5 34.7396 16.5 34.3749V27.4999C16.5 26.4059 16.9346 25.3567 17.7082 24.5831C18.4818 23.8095 19.531 23.3749 20.625 23.3749H23.375C24.469 23.3749 25.5182 23.8095 26.2918 24.5831C27.0654 25.3567 27.5 26.4059 27.5 27.4999V34.3749C27.5 34.7396 27.6449 35.0894 27.9027 35.3472C28.1606 35.6051 28.5103 35.7499 28.875 35.7499H34.375C34.7397 35.7499 35.0894 35.6051 35.3473 35.3472C35.6051 35.0894 35.75 34.7396 35.75 34.3749V19.0574C35.7501 18.8706 35.712 18.6858 35.6383 18.5141C35.5645 18.3425 35.4566 18.1877 35.321 18.0592L22 5.46694Z" fill="#494949"/>
</svg>
