<svg width="46" height="46" viewBox="0 0 46 46" fill="none" xmlns="http://www.w3.org/2000/svg">
<path d="M5.75 15.3332C5.75 16.3873 6.6125 17.2498 7.66667 17.2498C8.72083 17.2498 9.58333 16.3873 9.58333 15.3332V11.4998H13.4167C14.4708 11.4998 15.3333 10.6373 15.3333 9.58317C15.3333 8.529 14.4708 7.6665 13.4167 7.6665H9.58333V3.83317C9.58333 2.779 8.72083 1.9165 7.66667 1.9165C6.6125 1.9165 5.75 2.779 5.75 3.83317V7.6665H1.91667C0.8625 7.6665 0 8.529 0 9.58317C0 10.6373 0.8625 11.4998 1.91667 11.4998H5.75V15.3332Z" fill="#494949"/>
<path d="M25.1499 31.5C27.7733 31.5 29.8999 29.3734 29.8999 26.75C29.8999 24.1266 27.7733 22 25.1499 22C22.5265 22 20.3999 24.1266 20.3999 26.75C20.3999 29.3734 22.5265 31.5 25.1499 31.5Z" fill="#494949"/>
<path d="M33.3272 12.2778L33.669 12.6498H34.1742H40.25C41.7232 12.6498 42.9333 13.86 42.9333 15.3332V38.3332C42.9333 39.8064 41.7232 41.0165 40.25 41.0165H9.58333C8.11013 41.0165 6.9 39.8064 6.9 38.3332V20.2535C7.14604 20.2943 7.40157 20.3165 7.66667 20.3165C10.4101 20.3165 12.65 18.0766 12.65 15.3332V14.5665H13.4167C16.1601 14.5665 18.4 12.3266 18.4 9.58317C18.4 9.31807 18.3778 9.06255 18.337 8.8165H28.9796C29.35 8.81678 29.7163 8.89429 30.0551 9.04408L30.5201 7.99231L30.0551 9.04408C30.3939 9.19391 30.6978 9.41279 30.9473 9.68672L30.9506 9.69027L33.3272 12.2778ZM14.1833 26.8332C14.1833 32.7583 18.9915 37.5665 24.9167 37.5665C30.8418 37.5665 35.65 32.7583 35.65 26.8332C35.65 20.908 30.8418 16.0998 24.9167 16.0998C18.9915 16.0998 14.1833 20.908 14.1833 26.8332Z" stroke="#494949" stroke-width="2.3"/>
</svg>
