<svg width="14" height="14" viewBox="0 0 14 14" fill="none" xmlns="http://www.w3.org/2000/svg">
<path fill-rule="evenodd" clip-rule="evenodd" d="M14 7C14 10.866 10.866 14 7 14C3.13401 14 0 10.866 0 7C0 3.13401 3.13401 0 7 0C10.866 0 14 3.13401 14 7ZM7.00002 4.99999C7.55231 4.99999 8.00002 5.44771 8.00002 5.99999V11C8.00002 11.5523 7.55231 12 7.00002 12C6.44774 12 6.00002 11.5523 6.00002 11V5.99999C6.00002 5.44771 6.44774 4.99999 7.00002 4.99999ZM7.00002 4.00001C7.55231 4.00001 8.00002 3.55229 8.00002 3.00001C8.00002 2.44772 7.55231 2.00001 7.00002 2.00001C6.44774 2.00001 6.00002 2.44772 6.00002 3.00001C6.00002 3.55229 6.44774 4.00001 7.00002 4.00001Z" fill="#D8C3AF"/>
</svg>
