<svg width="28" height="38" viewBox="0 0 28 38" fill="none" xmlns="http://www.w3.org/2000/svg">
<path d="M11.7 15.55C11.7 15.245 11.8212 14.9525 12.0368 14.7368C12.2525 14.5211 12.545 14.4 12.85 14.4H20.9C21.205 14.4 21.4975 14.5211 21.7132 14.7368C21.9289 14.9525 22.05 15.245 22.05 15.55C22.05 15.855 21.9289 16.1475 21.7132 16.3631C21.4975 16.5788 21.205 16.7 20.9 16.7H12.85C12.545 16.7 12.2525 16.5788 12.0368 16.3631C11.8212 16.1475 11.7 15.855 11.7 15.55ZM11.7 22.45C11.7 22.145 11.8212 21.8525 12.0368 21.6368C12.2525 21.4211 12.545 21.3 12.85 21.3H20.9C21.205 21.3 21.4975 21.4211 21.7132 21.6368C21.9289 21.8525 22.05 22.145 22.05 22.45C22.05 22.755 21.9289 23.0475 21.7132 23.2631C21.4975 23.4788 21.205 23.6 20.9 23.6H12.85C12.545 23.6 12.2525 23.4788 12.0368 23.2631C11.8212 23.0475 11.7 22.755 11.7 22.45ZM11.7 29.35C11.7 29.045 11.8212 28.7525 12.0368 28.5368C12.2525 28.3211 12.545 28.2 12.85 28.2H20.9C21.205 28.2 21.4975 28.3211 21.7132 28.5368C21.9289 28.7525 22.05 29.045 22.05 29.35C22.05 29.655 21.9289 29.9475 21.7132 30.1631C21.4975 30.3788 21.205 30.5 20.9 30.5H12.85C12.545 30.5 12.2525 30.3788 12.0368 30.1631C11.8212 29.9475 11.7 29.655 11.7 29.35ZM9.40001 15.55C9.40001 16.0075 9.21827 16.4462 8.89477 16.7697C8.57127 17.0932 8.13251 17.275 7.67501 17.275C7.21751 17.275 6.77875 17.0932 6.45525 16.7697C6.13175 16.4462 5.95001 16.0075 5.95001 15.55C5.95001 15.0925 6.13175 14.6537 6.45525 14.3302C6.77875 14.0067 7.21751 13.825 7.67501 13.825C8.13251 13.825 8.57127 14.0067 8.89477 14.3302C9.21827 14.6537 9.40001 15.0925 9.40001 15.55ZM9.40001 22.45C9.40001 22.9075 9.21827 23.3462 8.89477 23.6697C8.57127 23.9932 8.13251 24.175 7.67501 24.175C7.21751 24.175 6.77875 23.9932 6.45525 23.6697C6.13175 23.3462 5.95001 22.9075 5.95001 22.45C5.95001 21.9925 6.13175 21.5537 6.45525 21.2302C6.77875 20.9067 7.21751 20.725 7.67501 20.725C8.13251 20.725 8.57127 20.9067 8.89477 21.2302C9.21827 21.5537 9.40001 21.9925 9.40001 22.45ZM7.67501 31.075C8.13251 31.075 8.57127 30.8932 8.89477 30.5697C9.21827 30.2462 9.40001 29.8075 9.40001 29.35C9.40001 28.8925 9.21827 28.4537 8.89477 28.1302C8.57127 27.8067 8.13251 27.625 7.67501 27.625C7.21751 27.625 6.77875 27.8067 6.45525 28.1302C6.13175 28.4537 5.95001 28.8925 5.95001 29.35C5.95001 29.8075 6.13175 30.2462 6.45525 30.5697C6.77875 30.8932 7.21751 31.075 7.67501 31.075ZM7.29551 2.89998C7.53343 2.22705 7.9742 1.64447 8.55708 1.23254C9.13997 0.82061 9.83626 0.599602 10.55 0.599976H17.45C18.1638 0.599602 18.8601 0.82061 19.4429 1.23254C20.0258 1.64447 20.4666 2.22705 20.7045 2.89998H24.35C25.265 2.89998 26.1425 3.26346 26.7895 3.91046C27.4365 4.55746 27.8 5.43498 27.8 6.34998V33.95C27.8 34.865 27.4365 35.7425 26.7895 36.3895C26.1425 37.0365 25.265 37.4 24.35 37.4H3.65001C2.73502 37.4 1.85749 37.0365 1.21049 36.3895C0.563493 35.7425 0.200012 34.865 0.200012 33.95V6.34998C0.200012 5.43498 0.563493 4.55746 1.21049 3.91046C1.85749 3.26346 2.73502 2.89998 3.65001 2.89998H7.29551ZM10.55 2.89998C10.245 2.89998 9.95251 3.02114 9.73684 3.2368C9.52117 3.45247 9.40001 3.74498 9.40001 4.04998C9.40001 4.35497 9.52117 4.64748 9.73684 4.86315C9.95251 5.07882 10.245 5.19998 10.55 5.19998H17.45C17.755 5.19998 18.0475 5.07882 18.2632 4.86315C18.4789 4.64748 18.6 4.35497 18.6 4.04998C18.6 3.74498 18.4789 3.45247 18.2632 3.2368C18.0475 3.02114 17.755 2.89998 17.45 2.89998H10.55ZM7.29551 5.19998H3.65001C3.34501 5.19998 3.05251 5.32114 2.83684 5.5368C2.62117 5.75247 2.50001 6.04498 2.50001 6.34998V33.95C2.50001 34.255 2.62117 34.5475 2.83684 34.7631C3.05251 34.9788 3.34501 35.1 3.65001 35.1H24.35C24.655 35.1 24.9475 34.9788 25.1632 34.7631C25.3789 34.5475 25.5 34.255 25.5 33.95V6.34998C25.5 6.04498 25.3789 5.75247 25.1632 5.5368C24.9475 5.32114 24.655 5.19998 24.35 5.19998H20.7045C20.4666 5.87291 20.0258 6.45548 19.4429 6.86741C18.8601 7.27934 18.1638 7.50035 17.45 7.49998H10.55C9.83626 7.50035 9.13997 7.27934 8.55708 6.86741C7.9742 6.45548 7.53343 5.87291 7.29551 5.19998Z" fill="#494949"/>
</svg>
