<svg width="15" height="13" viewBox="0 0 15 13" fill="none" xmlns="http://www.w3.org/2000/svg">
<g clip-path="url(#clip0_3328_3146)">
<path d="M6.40167 2.11288L5.85774 1.31543C2.09205 3.72771 0 6.65833 0 9.07061C0 11.4031 1.79916 12.4996 3.32636 12.4996C5.25105 12.4996 6.61088 10.9446 6.61088 9.30985C6.61088 7.93425 5.69038 6.75801 4.45607 6.31942C4.10042 6.1998 3.76569 6.10012 3.76569 5.52197C3.76569 4.78433 4.33054 3.68784 6.40167 2.11288ZM14.7071 2.11288L14.1632 1.31543C10.4393 3.72771 8.30544 6.65833 8.30544 9.07061C8.30544 11.4031 10.1464 12.4996 11.6736 12.4996C13.6192 12.4996 15 10.9446 15 9.30985C15 7.93425 14.0586 6.75801 12.7824 6.31942C12.4268 6.1998 12.113 6.10012 12.113 5.52197C12.113 4.78433 12.6987 3.68784 14.7071 2.11288Z" fill="#494949"/>
</g>
<defs>
<clipPath id="clip0_3328_3146">
<rect width="15" height="12.5" fill="white"/>
</clipPath>
</defs>
</svg>
