<svg width="44" height="44" viewBox="0 0 44 44" fill="none" xmlns="http://www.w3.org/2000/svg">
<g opacity="0.75">
<mask id="path-1-inside-1_1207_8923" fill="white">
<path d="M13.9982 7.22823C13.9624 7.1446 13.9435 7.05468 13.9427 6.96369C13.9419 6.87271 13.9591 6.78246 13.9934 6.6982C14.0277 6.61393 14.0785 6.53731 14.1426 6.47279C14.2068 6.40826 14.2831 6.35711 14.3672 6.32231C14.4512 6.2875 14.5414 6.26973 14.6324 6.27002C14.7233 6.27032 14.8134 6.28867 14.8972 6.32401C14.9811 6.35936 15.057 6.411 15.1208 6.47593C15.1845 6.54087 15.2347 6.61781 15.2685 6.7023L16.5839 9.87803C16.6205 9.96179 16.64 10.052 16.6413 10.1434C16.6427 10.2348 16.6258 10.3256 16.5916 10.4103C16.5574 10.4951 16.5067 10.5723 16.4424 10.6372C16.378 10.7021 16.3014 10.7536 16.2169 10.7886C16.1325 10.8235 16.0419 10.8413 15.9505 10.8409C15.8591 10.8404 15.7687 10.8217 15.6846 10.7859C15.6005 10.7501 15.5244 10.6979 15.4607 10.6323C15.397 10.5667 15.347 10.4891 15.3137 10.404L13.9982 7.22823ZM3.95209 18.0184L7.128 19.3337C7.29587 19.4006 7.48332 19.3987 7.6498 19.3284C7.81628 19.2581 7.94839 19.1251 8.01756 18.9582C8.08673 18.7913 8.0874 18.6038 8.01941 18.4364C7.95142 18.269 7.82026 18.135 7.65428 18.0636L4.47837 16.748C4.31021 16.6798 4.12191 16.6809 3.95451 16.7509C3.78711 16.821 3.6542 16.9544 3.58477 17.1221C3.51533 17.2897 3.515 17.478 3.58384 17.6459C3.65268 17.8138 3.78512 17.9477 3.95227 18.0184H3.95209ZM36.6094 19.3863C36.6996 19.3863 36.7889 19.3684 36.8722 19.3337L40.0479 18.0184C40.2133 17.9466 40.3439 17.8126 40.4115 17.6455C40.4791 17.4783 40.4783 17.2912 40.4093 17.1246C40.3403 16.958 40.2086 16.8252 40.0426 16.7548C39.8766 16.6844 39.6895 16.682 39.5218 16.7482L36.3459 18.0636C36.1989 18.1244 36.0775 18.2344 36.0025 18.3747C35.9275 18.5151 35.9034 18.6771 35.9345 18.8331C35.9656 18.9892 36.0499 19.1296 36.1729 19.2305C36.296 19.3314 36.4502 19.3865 36.6094 19.3863ZM27.7882 10.7761C27.8716 10.8107 27.961 10.8286 28.0514 10.8286C28.1417 10.8286 28.2311 10.8109 28.3145 10.7763C28.3979 10.7417 28.4737 10.6911 28.5376 10.6272C28.6014 10.5633 28.652 10.4874 28.6865 10.404L30.002 7.22823C30.0378 7.1446 30.0567 7.05468 30.0575 6.96369C30.0583 6.87271 30.0411 6.78246 30.0067 6.6982C29.9724 6.61393 29.9217 6.53731 29.8576 6.47279C29.7934 6.40826 29.7171 6.35711 29.633 6.32231C29.5489 6.2875 29.4588 6.26973 29.3678 6.27002C29.2768 6.27032 29.1868 6.28867 29.103 6.32401C29.0191 6.35936 28.9431 6.411 28.8794 6.47593C28.8156 6.54087 28.7654 6.61781 28.7317 6.7023L27.4163 9.87803C27.3465 10.0464 27.3465 10.2357 27.4163 10.4041C27.486 10.5725 27.6198 10.7063 27.7882 10.7761ZM41.9375 27.4999C41.9375 27.6822 41.8651 27.8571 41.7361 27.986C41.6072 28.1149 41.4323 28.1874 41.25 28.1874H31.9442L31.9421 28.1875L31.9397 28.1874H2.75C2.56766 28.1874 2.3928 28.1149 2.26386 27.986C2.13493 27.8571 2.0625 27.6822 2.0625 27.4999C2.0625 27.3175 2.13493 27.1427 2.26386 27.0137C2.3928 26.8848 2.56766 26.8124 2.75 26.8124H11.1947C10.8914 25.2219 10.943 23.584 11.3457 22.0157C11.7484 20.4474 12.4924 18.9874 13.5245 17.7398C14.5567 16.4923 15.8515 15.488 17.3166 14.7986C18.7816 14.1092 20.3808 13.7517 22 13.7517C23.6192 13.7517 25.2184 14.1092 26.6834 14.7986C28.1485 15.488 29.4433 16.4923 30.4755 17.7398C31.5076 18.9874 32.2516 20.4474 32.6543 22.0157C33.057 23.584 33.1086 25.2219 32.8053 26.8124H41.25C41.4323 26.8124 41.6072 26.8848 41.7361 27.0137C41.8651 27.1427 41.9375 27.3175 41.9375 27.4999ZM12.5977 26.8124H31.4022C31.71 25.4069 31.6987 23.9503 31.3693 22.5497C31.0398 21.1491 30.4006 19.8403 29.4985 18.7193C28.5965 17.5984 27.4546 16.694 26.157 16.0726C24.8593 15.4512 23.4388 15.1286 22 15.1286C20.5612 15.1286 19.1407 15.4512 17.843 16.0726C16.5454 16.694 15.4035 17.5984 14.5015 18.7193C13.5994 19.8403 12.9602 21.1491 12.6307 22.5497C12.3013 23.9503 12.29 25.4069 12.5977 26.8124ZM35.75 33.6874H8.25C8.06766 33.6874 7.8928 33.7598 7.76386 33.8887C7.63493 34.0177 7.5625 34.1925 7.5625 34.3749C7.5625 34.5572 7.63493 34.7321 7.76386 34.861C7.8928 34.9899 8.06766 35.0624 8.25 35.0624H35.75C35.9323 35.0624 36.1072 34.9899 36.2361 34.861C36.3651 34.7321 36.4375 34.5572 36.4375 34.3749C36.4375 34.1925 36.3651 34.0177 36.2361 33.8887C36.1072 33.7598 35.9323 33.6874 35.75 33.6874Z"/>
</mask>
<path d="M13.9982 7.22823C13.9624 7.1446 13.9435 7.05468 13.9427 6.96369C13.9419 6.87271 13.9591 6.78246 13.9934 6.6982C14.0277 6.61393 14.0785 6.53731 14.1426 6.47279C14.2068 6.40826 14.2831 6.35711 14.3672 6.32231C14.4512 6.2875 14.5414 6.26973 14.6324 6.27002C14.7233 6.27032 14.8134 6.28867 14.8972 6.32401C14.9811 6.35936 15.057 6.411 15.1208 6.47593C15.1845 6.54087 15.2347 6.61781 15.2685 6.7023L16.5839 9.87803C16.6205 9.96179 16.64 10.052 16.6413 10.1434C16.6427 10.2348 16.6258 10.3256 16.5916 10.4103C16.5574 10.4951 16.5067 10.5723 16.4424 10.6372C16.378 10.7021 16.3014 10.7536 16.2169 10.7886C16.1325 10.8235 16.0419 10.8413 15.9505 10.8409C15.8591 10.8404 15.7687 10.8217 15.6846 10.7859C15.6005 10.7501 15.5244 10.6979 15.4607 10.6323C15.397 10.5667 15.347 10.4891 15.3137 10.404L13.9982 7.22823ZM3.95209 18.0184L7.128 19.3337C7.29587 19.4006 7.48332 19.3987 7.6498 19.3284C7.81628 19.2581 7.94839 19.1251 8.01756 18.9582C8.08673 18.7913 8.0874 18.6038 8.01941 18.4364C7.95142 18.269 7.82026 18.135 7.65428 18.0636L4.47837 16.748C4.31021 16.6798 4.12191 16.6809 3.95451 16.7509C3.78711 16.821 3.6542 16.9544 3.58477 17.1221C3.51533 17.2897 3.515 17.478 3.58384 17.6459C3.65268 17.8138 3.78512 17.9477 3.95227 18.0184H3.95209ZM36.6094 19.3863C36.6996 19.3863 36.7889 19.3684 36.8722 19.3337L40.0479 18.0184C40.2133 17.9466 40.3439 17.8126 40.4115 17.6455C40.4791 17.4783 40.4783 17.2912 40.4093 17.1246C40.3403 16.958 40.2086 16.8252 40.0426 16.7548C39.8766 16.6844 39.6895 16.682 39.5218 16.7482L36.3459 18.0636C36.1989 18.1244 36.0775 18.2344 36.0025 18.3747C35.9275 18.5151 35.9034 18.6771 35.9345 18.8331C35.9656 18.9892 36.0499 19.1296 36.1729 19.2305C36.296 19.3314 36.4502 19.3865 36.6094 19.3863ZM27.7882 10.7761C27.8716 10.8107 27.961 10.8286 28.0514 10.8286C28.1417 10.8286 28.2311 10.8109 28.3145 10.7763C28.3979 10.7417 28.4737 10.6911 28.5376 10.6272C28.6014 10.5633 28.652 10.4874 28.6865 10.404L30.002 7.22823C30.0378 7.1446 30.0567 7.05468 30.0575 6.96369C30.0583 6.87271 30.0411 6.78246 30.0067 6.6982C29.9724 6.61393 29.9217 6.53731 29.8576 6.47279C29.7934 6.40826 29.7171 6.35711 29.633 6.32231C29.5489 6.2875 29.4588 6.26973 29.3678 6.27002C29.2768 6.27032 29.1868 6.28867 29.103 6.32401C29.0191 6.35936 28.9431 6.411 28.8794 6.47593C28.8156 6.54087 28.7654 6.61781 28.7317 6.7023L27.4163 9.87803C27.3465 10.0464 27.3465 10.2357 27.4163 10.4041C27.486 10.5725 27.6198 10.7063 27.7882 10.7761ZM41.9375 27.4999C41.9375 27.6822 41.8651 27.8571 41.7361 27.986C41.6072 28.1149 41.4323 28.1874 41.25 28.1874H31.9442L31.9421 28.1875L31.9397 28.1874H2.75C2.56766 28.1874 2.3928 28.1149 2.26386 27.986C2.13493 27.8571 2.0625 27.6822 2.0625 27.4999C2.0625 27.3175 2.13493 27.1427 2.26386 27.0137C2.3928 26.8848 2.56766 26.8124 2.75 26.8124H11.1947C10.8914 25.2219 10.943 23.584 11.3457 22.0157C11.7484 20.4474 12.4924 18.9874 13.5245 17.7398C14.5567 16.4923 15.8515 15.488 17.3166 14.7986C18.7816 14.1092 20.3808 13.7517 22 13.7517C23.6192 13.7517 25.2184 14.1092 26.6834 14.7986C28.1485 15.488 29.4433 16.4923 30.4755 17.7398C31.5076 18.9874 32.2516 20.4474 32.6543 22.0157C33.057 23.584 33.1086 25.2219 32.8053 26.8124H41.25C41.4323 26.8124 41.6072 26.8848 41.7361 27.0137C41.8651 27.1427 41.9375 27.3175 41.9375 27.4999ZM12.5977 26.8124H31.4022C31.71 25.4069 31.6987 23.9503 31.3693 22.5497C31.0398 21.1491 30.4006 19.8403 29.4985 18.7193C28.5965 17.5984 27.4546 16.694 26.157 16.0726C24.8593 15.4512 23.4388 15.1286 22 15.1286C20.5612 15.1286 19.1407 15.4512 17.843 16.0726C16.5454 16.694 15.4035 17.5984 14.5015 18.7193C13.5994 19.8403 12.9602 21.1491 12.6307 22.5497C12.3013 23.9503 12.29 25.4069 12.5977 26.8124ZM35.75 33.6874H8.25C8.06766 33.6874 7.8928 33.7598 7.76386 33.8887C7.63493 34.0177 7.5625 34.1925 7.5625 34.3749C7.5625 34.5572 7.63493 34.7321 7.76386 34.861C7.8928 34.9899 8.06766 35.0624 8.25 35.0624H35.75C35.9323 35.0624 36.1072 34.9899 36.2361 34.861C36.3651 34.7321 36.4375 34.5572 36.4375 34.3749C36.4375 34.1925 36.3651 34.0177 36.2361 33.8887C36.1072 33.7598 35.9323 33.6874 35.75 33.6874Z" fill="#494949" stroke="black" stroke-width="4" mask="url(#path-1-inside-1_1207_8923)"/>
</g>
</svg>
