<svg width="28" height="28" viewBox="0 0 28 28" fill="none" xmlns="http://www.w3.org/2000/svg">
<path d="M16.6835 3.03198C17.8502 1.63198 20.0668 2.56531 19.8335 4.31531C19.6002 6.53198 21.4668 8.28198 23.5668 8.04865C25.3168 7.81531 26.3667 10.1486 24.85 11.1986C23.1 12.5986 23.1 15.1653 24.85 16.5653C26.25 17.732 25.3168 19.9486 23.5668 19.7153C21.3502 19.482 19.6002 21.3486 19.8335 23.4486C20.0668 25.1986 17.7335 26.2486 16.6835 24.732C15.2835 22.982 12.7168 22.982 11.3168 24.732C10.1501 26.132 7.93343 25.1986 8.16676 23.4486C8.40009 21.232 6.53343 19.482 4.43343 19.7153C2.68343 19.9486 1.63343 17.6153 3.15009 16.5653C4.90009 15.1653 4.90009 12.5986 3.15009 11.1986C1.63343 10.1486 2.56676 7.93198 4.31676 8.16531C6.53343 8.39865 8.40009 6.53198 8.16676 4.31531C7.93343 2.56531 10.1501 1.63198 11.3168 3.03198C12.7168 4.78198 15.2835 4.78198 16.6835 3.03198Z" stroke="#494949" stroke-width="2" stroke-miterlimit="10"/>
<path d="M13.9999 18.6673C16.5772 18.6673 18.6666 16.5779 18.6666 14.0007C18.6666 11.4233 16.5772 9.33398 13.9999 9.33398C11.4226 9.33398 9.33325 11.4233 9.33325 14.0007C9.33325 16.5779 11.4226 18.6673 13.9999 18.6673Z" stroke="#494949" stroke-width="2" stroke-miterlimit="10"/>
</svg>
