<svg width="18" height="18" viewBox="0 0 18 18" fill="none" xmlns="http://www.w3.org/2000/svg">
<path d="M4.88699 10.7421L3.76949 15.5811C3.73489 15.7277 3.74527 15.8812 3.7993 16.0217C3.85332 16.1623 3.94847 16.2832 4.07232 16.3689C4.19616 16.4545 4.34295 16.5008 4.4935 16.5017C4.64406 16.5025 4.79138 16.458 4.91624 16.3739L8.99999 13.6514L13.0837 16.3739C13.2115 16.4587 13.3622 16.5024 13.5155 16.499C13.6688 16.4956 13.8174 16.4454 13.9413 16.3551C14.0652 16.2647 14.1585 16.1386 14.2086 15.9937C14.2587 15.8488 14.2632 15.692 14.2215 15.5444L12.8497 10.7444L16.2517 7.68288C16.3607 7.58477 16.4385 7.45688 16.4756 7.31501C16.5126 7.17315 16.5072 7.02354 16.4602 6.88469C16.4131 6.74583 16.3263 6.62382 16.2106 6.53375C16.095 6.44367 15.9554 6.38948 15.8092 6.37788L11.5335 6.03738L9.68324 1.94163C9.62424 1.80975 9.52834 1.69776 9.4071 1.61917C9.28586 1.54059 9.14447 1.49878 8.99999 1.49878C8.85551 1.49878 8.71412 1.54059 8.59288 1.61917C8.47164 1.69776 8.37574 1.80975 8.31674 1.94163L6.46649 6.03738L2.19074 6.37713C2.04708 6.38851 1.90974 6.44104 1.79516 6.52843C1.68057 6.61582 1.59358 6.73437 1.54461 6.8699C1.49563 7.00543 1.48674 7.1522 1.519 7.29266C1.55125 7.43311 1.62329 7.5613 1.72649 7.66188L4.88699 10.7421ZM7.02674 7.49763C7.16061 7.48708 7.28918 7.44072 7.39897 7.36339C7.50875 7.28606 7.59572 7.18063 7.65074 7.05813L8.99999 4.07238L10.3492 7.05813C10.4043 7.18063 10.4912 7.28606 10.601 7.36339C10.7108 7.44072 10.8394 7.48708 10.9732 7.49763L13.9522 7.73388L11.499 9.94188C11.286 10.1339 11.2012 10.4294 11.2792 10.7054L12.219 13.9941L9.41699 12.1259C9.294 12.0433 9.14923 11.9993 9.00111 11.9993C8.853 11.9993 8.70823 12.0433 8.58524 12.1259L5.65724 14.0781L6.44474 10.6686C6.47361 10.5432 6.46974 10.4125 6.43349 10.289C6.39723 10.1656 6.32982 10.0535 6.23774 9.96363L3.95924 7.74213L7.02674 7.49763Z" fill="#494949"/>
</svg>
