<svg width="30" height="38" viewBox="0 0 30 38" fill="none" xmlns="http://www.w3.org/2000/svg">
<path d="M25.5 20C26.6935 20 27.8381 20.4741 28.682 21.318C29.5259 22.1619 30 23.3065 30 24.5V26C30 31.913 24.42 38 15 38C5.58 38 0 31.913 0 26V24.5C0 23.3065 0.474106 22.1619 1.31802 21.318C2.16193 20.4741 3.30653 20 4.5 20H25.5ZM25.5 23H4.5C4.10218 23 3.72064 23.158 3.43934 23.4393C3.15804 23.7206 3 24.1022 3 24.5V26C3 30.314 7.296 35 15 35C22.704 35 27 30.314 27 26V24.5C27 24.1022 26.842 23.7206 26.5607 23.4393C26.2794 23.158 25.8978 23 25.5 23ZM15 0.5C17.188 0.5 19.2865 1.36919 20.8336 2.91637C22.3808 4.46354 23.25 6.56196 23.25 8.75C23.25 10.938 22.3808 13.0365 20.8336 14.5836C19.2865 16.1308 17.188 17 15 17C12.812 17 10.7135 16.1308 9.16637 14.5836C7.61919 13.0365 6.75 10.938 6.75 8.75C6.75 6.56196 7.61919 4.46354 9.16637 2.91637C10.7135 1.36919 12.812 0.5 15 0.5ZM15 3.5C13.6076 3.5 12.2723 4.05312 11.2877 5.03769C10.3031 6.02226 9.75 7.35761 9.75 8.75C9.75 10.1424 10.3031 11.4777 11.2877 12.4623C12.2723 13.4469 13.6076 14 15 14C16.3924 14 17.7277 13.4469 18.7123 12.4623C19.6969 11.4777 20.25 10.1424 20.25 8.75C20.25 7.35761 19.6969 6.02226 18.7123 5.03769C17.7277 4.05312 16.3924 3.5 15 3.5Z" fill="#494949"/>
</svg>
