<svg width="21" height="25" viewBox="0 0 21 25" fill="none" xmlns="http://www.w3.org/2000/svg">
<g clip-path="url(#clip0_2_5)">
<path d="M19.8624 8.37592C19.7199 8.48649 17.2039 9.90418 17.2039 13.0565C17.2039 16.7027 20.4054 17.9926 20.5012 18.0246C20.4865 18.1032 19.9926 19.7912 18.8133 21.5111C17.7617 23.0246 16.6634 24.5356 14.9926 24.5356C13.3219 24.5356 12.8919 23.5651 10.9631 23.5651C9.08354 23.5651 8.41523 24.5676 6.88698 24.5676C5.35872 24.5676 4.29238 23.1671 3.06634 21.4472C1.64619 19.4275 0.498772 16.2899 0.498772 13.312C0.498772 8.53563 3.60442 6.00246 6.66093 6.00246C8.28501 6.00246 9.63882 7.0688 10.6585 7.0688C11.629 7.0688 13.1425 5.93858 14.9902 5.93858C15.6904 5.93858 18.2064 6.00246 19.8624 8.37592ZM14.113 3.91646C14.8772 3.00983 15.4177 1.75184 15.4177 0.493858C15.4177 0.31941 15.4029 0.142506 15.371 0C14.1278 0.046683 12.6486 0.82801 11.7568 1.86241C11.0565 2.65848 10.4029 3.91646 10.4029 5.19165C10.4029 5.38329 10.4349 5.57494 10.4496 5.63636C10.5283 5.65111 10.656 5.6683 10.7838 5.6683C11.8993 5.6683 13.3022 4.92138 14.113 3.91646Z" fill="#4A4748"/>
</g>
<defs>
<clipPath id="clip0_2_5">
<rect width="21" height="25" fill="white"/>
</clipPath>
</defs>
</svg>
