<svg width="20" height="20" viewBox="0 0 20 20" fill="none" xmlns="http://www.w3.org/2000/svg">
<path d="M6.65749 2.91585C6.54847 3.02748 6.48743 3.17732 6.48743 3.33335C6.48743 3.48939 6.54847 3.63923 6.65749 3.75085L12.7487 9.9996L6.65749 16.2471C6.54847 16.3587 6.48743 16.5086 6.48743 16.6646C6.48743 16.8206 6.54847 16.9705 6.65749 17.0821C6.71049 17.1365 6.77385 17.1798 6.84384 17.2093C6.91383 17.2389 6.98903 17.2541 7.06499 17.2541C7.14096 17.2541 7.21616 17.2389 7.28615 17.2093C7.35614 17.1798 7.4195 17.1365 7.47249 17.0821L13.95 10.4359C14.0638 10.3191 14.1274 10.1626 14.1274 9.9996C14.1274 9.83661 14.0638 9.68007 13.95 9.56335L7.47249 2.9171C7.4195 2.86268 7.35614 2.81941 7.28615 2.78988C7.21616 2.76034 7.14096 2.74512 7.06499 2.74512C6.98903 2.74512 6.91383 2.76034 6.84384 2.78988C6.77385 2.81941 6.71049 2.86268 6.65749 2.9171V2.91585Z" fill="#494949"/>
</svg>
