<svg width="28" height="28" viewBox="0 0 28 28" fill="none" xmlns="http://www.w3.org/2000/svg">
<path d="M21.3296 11.1839C21.3296 9.13046 20.5206 7.16109 19.0805 5.70906C17.6405 4.25703 15.6873 3.44129 13.6508 3.44129C11.6143 3.44129 9.66113 4.25703 8.22108 5.70906C6.78103 7.16109 5.97202 9.13046 5.97202 11.1839C5.97202 14.3601 8.49237 18.4999 13.6508 23.4586C18.8092 18.4999 21.3296 14.3601 21.3296 11.1839ZM13.6508 25.8089C7.39345 20.0742 4.26562 15.1981 4.26562 11.1839C4.26562 8.67413 5.25442 6.26712 7.01448 4.49242C8.77454 2.71772 11.1617 1.7207 13.6508 1.7207C16.1399 1.7207 18.5271 2.71772 20.2871 4.49242C22.0472 6.26712 23.036 8.67413 23.036 11.1839C23.036 15.1981 19.9082 20.0742 13.6508 25.8089Z" fill="#494949"/>
<path d="M13.6508 13.7652C14.3296 13.7652 14.9806 13.4933 15.4607 13.0092C15.9407 12.5252 16.2103 11.8688 16.2103 11.1843C16.2103 10.4998 15.9407 9.84333 15.4607 9.35932C14.9806 8.87531 14.3296 8.6034 13.6508 8.6034C12.9719 8.6034 12.3209 8.87531 11.8408 9.35932C11.3608 9.84333 11.0912 10.4998 11.0912 11.1843C11.0912 11.8688 11.3608 12.5252 11.8408 13.0092C12.3209 13.4933 12.9719 13.7652 13.6508 13.7652ZM13.6508 15.4858C12.5193 15.4858 11.4343 15.0326 10.6342 14.2259C9.83422 13.4192 9.38477 12.3251 9.38477 11.1843C9.38477 10.0435 9.83422 8.94937 10.6342 8.14268C11.4343 7.336 12.5193 6.88281 13.6508 6.88281C14.7822 6.88281 15.8672 7.336 16.6673 8.14268C17.4673 8.94937 17.9167 10.0435 17.9167 11.1843C17.9167 12.3251 17.4673 13.4192 16.6673 14.2259C15.8672 15.0326 14.7822 15.4858 13.6508 15.4858Z" fill="#494949"/>
</svg>
