<svg width="35" height="38" viewBox="0 0 35 38" fill="none" xmlns="http://www.w3.org/2000/svg">
<path d="M19.4322 1.54935C18.91 1.05566 18.2186 0.780579 17.5 0.780579C16.7814 0.780579 16.09 1.05566 15.5678 1.54935L1.94406 14.425C1.52692 14.8197 1.19476 15.2955 0.967947 15.8231C0.741131 16.3507 0.624433 16.9191 0.625002 17.4934V33.159C0.625748 34.2774 1.07055 35.3498 1.86164 36.1403C2.65273 36.9309 3.72536 37.375 4.84375 37.375H9.0625C10.1814 37.375 11.2544 36.9305 12.0456 36.1393C12.8368 35.3482 13.2813 34.2751 13.2813 33.1562V26.125C13.2813 25.752 13.4294 25.3943 13.6931 25.1306C13.9569 24.8669 14.3145 24.7187 14.6875 24.7187H20.3125C20.6855 24.7187 21.0431 24.8669 21.3069 25.1306C21.5706 25.3943 21.7188 25.752 21.7188 26.125V33.1562C21.7188 34.2751 22.1632 35.3482 22.9544 36.1393C23.7456 36.9305 24.8186 37.375 25.9375 37.375H30.1563C31.2751 37.375 32.3482 36.9305 33.1394 36.1393C33.9305 35.3482 34.375 34.2751 34.375 33.1562V17.4906C34.3748 16.9166 34.2575 16.3486 34.0302 15.8215C33.8029 15.2943 33.4704 14.8192 33.0531 14.425L19.4322 1.54373V1.54935Z" fill="#494949"/>
</svg>
