<svg width="46" height="46" viewBox="0 0 46 46" fill="none" xmlns="http://www.w3.org/2000/svg">
<path d="M19.55 4.60001H26.45C27.1638 4.59963 27.8601 4.82064 28.4429 5.23257C29.0258 5.6445 29.4666 6.22708 29.7045 6.90001H33.35C34.265 6.90001 35.1425 7.26349 35.7895 7.91049C36.4365 8.55749 36.8 9.43501 36.8 10.35V37.95C36.8 38.865 36.4365 39.7425 35.7895 40.3895C35.1425 41.0365 34.265 41.4 33.35 41.4H12.65C11.735 41.4 10.8575 41.0365 10.2105 40.3895C9.56349 39.7425 9.20001 38.865 9.20001 37.95V10.35C9.20001 9.43501 9.56349 8.55749 10.2105 7.91049C10.8575 7.26349 11.735 6.90001 12.65 6.90001H16.2955C16.5334 6.22708 16.9742 5.6445 17.5571 5.23257C18.14 4.82064 18.8363 4.59963 19.55 4.60001ZM18.4 8.05001C18.4 8.35501 18.5212 8.64751 18.7368 8.86318C18.9525 9.07885 19.245 9.20001 19.55 9.20001H26.45C26.755 9.20001 27.0475 9.07885 27.2632 8.86318C27.4789 8.64751 27.6 8.35501 27.6 8.05001C27.6 7.74501 27.4789 7.4525 27.2632 7.23683C27.0475 7.02117 26.755 6.90001 26.45 6.90001H19.55C19.245 6.90001 18.9525 7.02117 18.7368 7.23683C18.5212 7.4525 18.4 7.74501 18.4 8.05001ZM29.325 21.275C29.7825 21.275 30.2213 21.0933 30.5448 20.7698C30.8683 20.4463 31.05 20.0075 31.05 19.55C31.05 19.0925 30.8683 18.6537 30.5448 18.3302C30.2213 18.0067 29.7825 17.825 29.325 17.825C28.8675 17.825 28.4288 18.0067 28.1053 18.3302C27.7818 18.6537 27.6 19.0925 27.6 19.55C27.6 20.0075 27.7818 20.4463 28.1053 20.7698C28.4288 21.0933 28.8675 21.275 29.325 21.275ZM29.325 28.175C29.7825 28.175 30.2213 27.9933 30.5448 27.6698C30.8683 27.3463 31.05 26.9075 31.05 26.45C31.05 25.9925 30.8683 25.5537 30.5448 25.2302C30.2213 24.9067 29.7825 24.725 29.325 24.725C28.8675 24.725 28.4288 24.9067 28.1053 25.2302C27.7818 25.5537 27.6 25.9925 27.6 26.45C27.6 26.9075 27.7818 27.3463 28.1053 27.6698C28.4288 27.9933 28.8675 28.175 29.325 28.175ZM27.6 33.35C27.6 33.8075 27.7818 34.2463 28.1053 34.5698C28.4288 34.8933 28.8675 35.075 29.325 35.075C29.7825 35.075 30.2213 34.8933 30.5448 34.5698C30.8683 34.2463 31.05 33.8075 31.05 33.35C31.05 32.8925 30.8683 32.4537 30.5448 32.1302C30.2213 31.8067 29.7825 31.625 29.325 31.625C28.8675 31.625 28.4288 31.8067 28.1053 32.1302C27.7818 32.4537 27.6 32.8925 27.6 33.35ZM25.3 19.55C25.3 19.245 25.1789 18.9525 24.9632 18.7368C24.7475 18.5212 24.455 18.4 24.15 18.4H16.1C15.795 18.4 15.5025 18.5212 15.2868 18.7368C15.0712 18.9525 14.95 19.245 14.95 19.55C14.95 19.855 15.0712 20.1475 15.2868 20.3632C15.5025 20.5788 15.795 20.7 16.1 20.7H24.15C24.455 20.7 24.7475 20.5788 24.9632 20.3632C25.1789 20.1475 25.3 19.855 25.3 19.55ZM25.3 26.45C25.3 26.145 25.1789 25.8525 24.9632 25.6368C24.7475 25.4212 24.455 25.3 24.15 25.3H16.1C15.795 25.3 15.5025 25.4212 15.2868 25.6368C15.0712 25.8525 14.95 26.145 14.95 26.45C14.95 26.755 15.0712 27.0475 15.2868 27.2632C15.5025 27.4788 15.795 27.6 16.1 27.6H24.15C24.455 27.6 24.7475 27.4788 24.9632 27.2632C25.1789 27.0475 25.3 26.755 25.3 26.45ZM25.3 33.35C25.3 33.045 25.1789 32.7525 24.9632 32.5368C24.7475 32.3212 24.455 32.2 24.15 32.2H16.1C15.795 32.2 15.5025 32.3212 15.2868 32.5368C15.0712 32.7525 14.95 33.045 14.95 33.35C14.95 33.655 15.0712 33.9475 15.2868 34.1632C15.5025 34.3788 15.795 34.5 16.1 34.5H24.15C24.455 34.5 24.7475 34.3788 24.9632 34.1632C25.1789 33.9475 25.3 33.655 25.3 33.35Z" fill="#494949"/>
</svg>
