<svg width="42" height="42" viewBox="0 0 42 42" fill="none" xmlns="http://www.w3.org/2000/svg">
<path d="M38.5 15.064V29.3125C38.5001 30.7652 37.9443 32.163 36.9466 33.2189C35.9489 34.2749 34.5849 34.909 33.1345 34.9913L32.8125 35H9.1875C7.73476 35.0001 6.33705 34.4443 5.2811 33.4466C4.22514 32.4489 3.591 31.0849 3.50875 29.6345L3.5 29.3125V15.064L20.391 23.912C20.5789 24.0104 20.7879 24.0618 21 24.0618C21.2121 24.0618 21.4211 24.0104 21.609 23.912L38.5 15.064ZM9.1875 7H32.8125C34.2223 6.99983 35.5819 7.52324 36.6276 8.46872C37.6733 9.41419 38.3306 10.7143 38.472 12.117L21 21.2695L3.528 12.117C3.66367 10.77 4.27534 9.51566 5.25306 8.57931C6.23079 7.64297 7.51044 7.08608 8.862 7.00875L9.1875 7H32.8125H9.1875Z" fill="#494949"/>
</svg>
