<svg width="38" height="30" viewBox="0 0 38 30" fill="none" xmlns="http://www.w3.org/2000/svg">
<path d="M32.75 0C35.65 0 38 2.35 38 5.25V24.75C38 27.65 35.65 30 32.75 30H5.25C3.85761 30 2.52226 29.4469 1.53769 28.4623C0.553123 27.4777 0 26.1424 0 24.75V5.25C0 2.35 2.35 0 5.25 0H32.75ZM35.5 9.351L19.602 18.095C19.4384 18.1849 19.2568 18.2371 19.0704 18.2477C18.8841 18.2582 18.6977 18.2269 18.525 18.156L18.398 18.096L2.5 9.35V24.75C2.5 25.4793 2.78973 26.1788 3.30546 26.6945C3.82118 27.2103 4.52065 27.5 5.25 27.5H32.75C33.4793 27.5 34.1788 27.2103 34.6945 26.6945C35.2103 26.1788 35.5 25.4793 35.5 24.75V9.351ZM32.75 2.5H5.25C4.52065 2.5 3.82118 2.78973 3.30546 3.30546C2.78973 3.82118 2.5 4.52065 2.5 5.25V6.499L19 15.573L35.5 6.498V5.25C35.5 4.52065 35.2103 3.82118 34.6945 3.30546C34.1788 2.78973 33.4793 2.5 32.75 2.5Z" fill="#494949"/>
</svg>
