<svg width="30" height="38" viewBox="0 0 30 38" fill="none" xmlns="http://www.w3.org/2000/svg">
<path d="M15 0.25C13.0109 0.25 11.1032 1.04018 9.6967 2.4467C8.29018 3.85322 7.5 5.76088 7.5 7.75C7.5 9.73912 8.29018 11.6468 9.6967 13.0533C11.1032 14.4598 13.0109 15.25 15 15.25C16.9891 15.25 18.8968 14.4598 20.3033 13.0533C21.7098 11.6468 22.5 9.73912 22.5 7.75C22.5 5.76088 21.7098 3.85322 20.3033 2.4467C18.8968 1.04018 16.9891 0.25 15 0.25Z" fill="#494949"/>
<path d="M24.375 19H5.625C4.13316 19 2.70242 19.5926 1.64752 20.6475C0.592632 21.7024 0 23.1332 0 24.625C0 28.81 1.72125 32.1625 4.545 34.4312C7.32375 36.6625 11.0513 37.75 15 37.75C18.9487 37.75 22.6763 36.6625 25.455 34.4312C28.275 32.1625 30 28.81 30 24.625C30 23.1332 29.4074 21.7024 28.3525 20.6475C27.2976 19.5926 25.8668 19 24.375 19Z" fill="#494949"/>
</svg>
