<svg width="17" height="16" viewBox="0 0 17 16" fill="none" xmlns="http://www.w3.org/2000/svg">
<path d="M12.599 10.344C13.5617 9.02267 13.9929 7.38447 13.8063 5.75713C13.6197 4.12979 12.8291 2.63332 11.5926 1.56711C10.3562 0.500899 8.76504 -0.056418 7.13759 0.00665514C5.51014 0.0697283 3.96638 0.748541 2.81515 1.90729C1.66393 3.06603 0.990144 4.61926 0.9286 6.25621C0.867056 7.89317 1.42229 9.49314 2.48322 10.736C3.54415 11.9789 5.03254 12.773 6.6506 12.9596C8.26867 13.1461 9.89709 12.7112 11.2101 11.742H11.2091C11.2389 11.782 11.2707 11.82 11.3065 11.857L15.1343 15.707C15.3207 15.8946 15.5736 16.0001 15.8373 16.0002C16.1011 16.0003 16.354 15.895 16.5406 15.7075C16.7271 15.52 16.832 15.2656 16.8321 15.0003C16.8322 14.7351 16.7275 14.4806 16.5411 14.293L12.7133 10.443C12.6778 10.4068 12.6396 10.3734 12.599 10.343V10.344ZM12.8555 6.49998C12.8555 7.22225 12.7141 7.93745 12.4393 8.60474C12.1645 9.27203 11.7617 9.87834 11.2539 10.3891C10.7461 10.8998 10.1433 11.3049 9.47989 11.5813C8.81646 11.8577 8.1054 12 7.3873 12C6.66921 12 5.95814 11.8577 5.29471 11.5813C4.63128 11.3049 4.02846 10.8998 3.52069 10.3891C3.01292 9.87834 2.61014 9.27203 2.33534 8.60474C2.06053 7.93745 1.91909 7.22225 1.91909 6.49998C1.91909 5.04129 2.49521 3.64234 3.52069 2.61089C4.54618 1.57944 5.93704 0.999979 7.3873 0.999979C8.83756 0.999979 10.2284 1.57944 11.2539 2.61089C12.2794 3.64234 12.8555 5.04129 12.8555 6.49998Z" fill="#494949"/>
</svg>
