<svg width="45" height="45" viewBox="0 0 45 45" fill="none" xmlns="http://www.w3.org/2000/svg">
<path fill-rule="evenodd" clip-rule="evenodd" d="M43 22.5C43 33.8218 33.8218 43 22.5 43C11.1782 43 2 33.8218 2 22.5C2 11.1782 11.1782 2 22.5 2C33.8218 2 43 11.1782 43 22.5ZM45 22.5C45 34.9264 34.9264 45 22.5 45C10.0736 45 0 34.9264 0 22.5C0 10.0736 10.0736 0 22.5 0C34.9264 0 45 10.0736 45 22.5ZM20.9393 8.93934L11.3934 18.4853C10.8076 19.0711 10.8076 20.0208 11.3934 20.6066C11.9792 21.1924 12.9289 21.1924 13.5147 20.6066L20.5 13.6213V37H23.5V13.6213L30.4853 20.6066C31.0711 21.1924 32.0208 21.1924 32.6066 20.6066C33.1924 20.0208 33.1924 19.0711 32.6066 18.4853L23.0607 8.93934C22.4749 8.35355 21.5251 8.35355 20.9393 8.93934Z" fill="#494949"/>
</svg>
